<svg width="31" height="30" viewBox="0 0 31 30" fill="none" xmlns="http://www.w3.org/2000/svg">
<path opacity="0.4" d="M3.625 15C3.625 9.40207 3.625 6.60311 5.36405 4.86405C7.10311 3.125 9.90207 3.125 15.5 3.125C21.0979 3.125 23.8969 3.125 25.636 4.86405C27.375 6.60311 27.375 9.40207 27.375 15C27.375 20.5979 27.375 23.3969 25.636 25.136C23.8969 26.875 21.0979 26.875 15.5 26.875C9.90207 26.875 7.10311 26.875 5.36405 25.136C3.625 23.3969 3.625 20.5979 3.625 15Z" fill="#FF0000"/>
<path d="M3.625 15C3.625 9.40207 3.625 6.60311 5.36405 4.86405C7.10311 3.125 9.90207 3.125 15.5 3.125C21.0979 3.125 23.8969 3.125 25.636 4.86405C27.375 6.60311 27.375 9.40207 27.375 15C27.375 20.5979 27.375 23.3969 25.636 25.136C23.8969 26.875 21.0979 26.875 15.5 26.875C9.90207 26.875 7.10311 26.875 5.36405 25.136C3.625 23.3969 3.625 20.5979 3.625 15Z" stroke="#FF0000" stroke-width="1.875"/>
<path d="M14.25 8.75H21.75" stroke="#FF0000" stroke-width="1.875" stroke-linecap="round"/>
<path d="M9.25 8.75H10.5" stroke="#FF0000" stroke-width="1.875" stroke-linecap="round"/>
<path d="M9.25 15H10.5" stroke="#FF0000" stroke-width="1.875" stroke-linecap="round"/>
<path d="M9.25 21.25H10.5" stroke="#FF0000" stroke-width="1.875" stroke-linecap="round"/>
<path d="M14.25 15H21.75" stroke="#FF0000" stroke-width="1.875" stroke-linecap="round"/>
<path d="M14.25 21.25H21.75" stroke="#FF0000" stroke-width="1.875" stroke-linecap="round"/>
</svg>
